<svg xmlns="http://www.w3.org/2000/svg" width="612" height="408" viewBox="0 0 612 408">
<g>
<path d="M 202.74 223.36 C203.33,246.10 203.08,247.46 199.14,242.45 C196.33,238.88 188.33,232.69 183.10,230.03 C177.00,226.94 171.89,225.14 162.07,222.59 C157.43,221.39 153.46,219.87 153.23,219.20 C153.01,218.54 153.52,218.00 154.35,218.00 C155.19,218.00 159.39,216.71 163.69,215.13 C174.65,211.11 193.68,205.00 195.24,205.00 C195.95,205.00 197.21,203.89 198.03,202.54 C199.03,200.90 199.96,200.36 200.84,200.90 C201.85,201.52 202.31,206.97 202.74,223.36 ZM 214.66 239.08 C211.10,242.34 207.92,245.00 207.60,245.00 C206.86,245.00 206.80,205.69 207.54,203.77 C207.96,202.67 209.49,203.09 214.66,205.69 C218.28,207.51 221.88,209.00 222.67,209.00 C223.46,209.00 227.57,210.32 231.80,211.94 C236.04,213.55 242.74,215.83 246.69,217.00 C255.36,219.57 255.41,221.10 246.88,222.86 C235.36,225.24 222.93,231.50 214.66,239.08 ZM 228.72 237.58 C225.00,238.90 220.61,240.67 218.97,241.51 C214.89,243.63 215.23,241.82 219.55,238.53 C227.61,232.38 243.68,226.47 260.75,223.37 C262.99,222.96 263.00,222.92 263.00,202.96 L 263.00 182.95 L 265.57 181.98 C266.98,181.44 268.55,181.00 269.07,181.00 C270.18,181.00 270.37,228.99 269.25,229.02 C268.84,229.03 263.72,229.67 257.89,230.45 C246.80,231.93 240.08,233.57 228.72,237.58 ZM 193.87 241.33 C194.63,242.25 195.08,242.94 194.87,242.88 C194.67,242.81 190.87,241.25 186.43,239.41 C174.96,234.65 160.92,231.08 150.75,230.34 C145.44,229.95 141.57,229.18 140.90,228.38 C140.14,227.46 140.03,220.22 140.54,204.03 C141.18,183.79 141.47,181.00 142.89,181.02 C146.43,181.05 146.72,182.43 147.45,202.49 C147.85,213.48 148.39,222.82 148.65,223.24 C148.91,223.66 150.25,224.00 151.64,224.00 C155.39,224.00 168.60,227.56 175.92,230.54 C182.86,233.37 191.67,238.66 193.87,241.33 ZM 307.93 202.54 C305.08,204.01 292.94,204.60 291.67,203.33 C291.30,202.97 291.00,197.40 291.00,190.97 L 291.00 179.28 L 296.25 178.67 C302.18,177.99 308.88,179.20 310.13,181.18 C311.38,183.15 311.17,186.38 309.65,188.46 C308.49,190.05 308.56,190.56 310.15,192.15 C313.40,195.40 312.37,200.24 307.93,202.54 ZM 347.92 202.75 C345.39,205.14 338.91,203.58 337.07,200.12 C335.24,196.70 335.77,190.23 338.07,187.93 C339.69,186.31 341.17,185.92 344.82,186.15 L 349.50 186.44 L 349.81 182.22 C350.06,178.81 350.49,178.00 352.06,178.00 C353.88,178.00 354.00,178.79 354.00,191.00 C354.00,203.14 353.87,204.00 352.08,204.00 C351.03,204.00 349.96,203.44 349.71,202.75 C349.34,201.75 348.98,201.75 347.92,202.75 ZM 330.41 200.92 C326.20,205.93 318.80,204.75 315.45,198.54 C311.96,192.06 316.15,186.00 324.12,186.00 C328.04,186.00 329.21,186.45 330.93,188.63 C333.80,192.28 333.59,197.14 330.41,200.92 ZM 389.50 202.89 C388.95,202.91 387.38,203.18 386.00,203.51 C382.73,204.28 379.00,201.61 379.00,198.50 C379.00,195.49 382.47,193.00 386.66,193.00 C390.41,193.00 391.60,191.74 389.50,190.00 C388.58,189.24 386.73,189.02 384.63,189.41 C382.15,189.87 381.08,189.66 380.68,188.61 C379.96,186.73 382.03,186.00 388.05,186.00 C394.17,186.00 395.00,187.33 395.00,197.05 C395.00,204.04 394.94,204.21 392.75,203.54 C391.51,203.17 390.05,202.87 389.50,202.89 ZM 362.80 197.20 C362.56,202.24 362.16,203.55 360.75,203.81 C359.16,204.12 359.00,202.98 359.00,191.07 C359.00,178.67 359.10,178.00 361.00,178.00 C362.69,178.00 363.00,178.67 363.00,182.35 L 363.00 186.71 L 367.79 186.25 C374.31,185.62 375.50,187.18 375.50,196.40 C375.50,202.83 375.31,203.50 373.50,203.50 C371.75,203.50 371.46,202.73 371.20,197.33 C370.86,190.12 369.32,188.08 365.52,189.81 C363.39,190.78 363.06,191.66 362.80,197.20 ZM 320.57 198.43 C322.90,200.76 325.73,200.34 327.67,197.38 C329.20,195.04 329.23,194.50 327.91,192.13 C327.10,190.69 325.49,189.36 324.34,189.20 C319.88,188.55 317.22,195.08 320.57,198.43 ZM 341.44 197.55 C343.67,200.95 347.72,200.86 349.05,197.37 C350.96,192.35 347.72,187.89 343.56,189.79 C340.33,191.26 339.45,194.51 341.44,197.55 ZM 296.67 199.33 C297.82,200.48 303.54,200.06 305.42,198.68 C306.41,197.96 307.05,196.50 306.85,195.43 C306.55,193.86 305.49,193.44 301.24,193.20 C296.06,192.90 296.00,192.93 296.00,195.78 C296.00,197.37 296.30,198.97 296.67,199.33 ZM 296.71 188.38 C298.00,189.67 304.27,188.54 305.34,186.83 C306.97,184.23 304.44,182.00 299.88,182.00 C296.29,182.00 296.00,182.21 296.00,184.83 C296.00,186.39 296.32,187.99 296.71,188.38 ZM 384.54 199.65 C385.64,200.46 386.17,200.86 386.72,200.90 C387.25,200.94 387.80,200.64 388.91,200.05 L 389.07 199.96 C392.30,198.24 391.45,196.00 387.56,196.00 C383.45,196.00 381.98,197.78 384.54,199.65 Z" fill="rgb(13,51,71)"/>
<path d="M 202.74 223.36 C202.31,206.97 201.85,201.52 200.84,200.90 C199.96,200.36 199.03,200.90 198.03,202.54 C197.21,203.89 195.95,205.00 195.24,205.00 C193.68,205.00 174.65,211.11 163.69,215.13 C159.39,216.71 155.19,218.00 154.35,218.00 C153.52,218.00 153.01,218.54 153.23,219.20 C153.41,219.72 155.85,220.76 159.11,221.76 C157.84,221.43 156.64,221.12 155.75,220.89 L 152.00 219.92 L 152.00 196.46 C152.00,173.60 152.05,173.00 154.02,173.00 C158.28,173.00 184.08,187.36 195.81,196.27 L 201.50 200.59 L 202.13 207.54 C202.45,211.19 202.78,220.42 202.86,228.54 C202.83,226.95 202.78,225.23 202.74,223.36 ZM 224.51 182.99 C223.60,184.00 218.90,187.73 214.07,191.28 L 205.30 197.75 L 194.24 189.87 C186.32,184.22 183.29,181.49 183.54,180.24 C184.76,174.07 185.18,173.00 186.45,173.00 C187.22,173.00 190.13,168.84 192.90,163.75 C195.68,158.66 197.96,155.14 197.98,155.92 C197.99,156.70 198.26,157.07 198.58,156.75 C198.90,156.43 199.98,156.92 200.98,157.83 C205.90,162.35 207.67,163.78 209.63,164.81 C211.56,165.84 211.77,166.85 211.93,176.19 C212.03,181.83 212.31,186.64 212.55,186.89 C212.80,187.13 214.13,186.73 215.50,186.00 C217.68,184.83 218.00,183.99 218.00,179.41 L 218.00 174.15 L 221.01 175.65 C225.25,177.77 226.62,180.65 224.51,182.99 ZM 207.80 203.39 C207.85,203.01 207.91,202.74 207.97,202.58 C209.23,199.28 221.66,190.10 224.04,190.72 C225.01,190.98 226.03,192.01 226.30,193.02 C226.60,194.18 228.38,195.29 231.10,196.03 C233.47,196.67 235.93,197.89 236.56,198.75 C237.49,200.03 238.99,200.20 244.71,199.66 C250.83,199.09 252.00,199.26 254.01,201.01 C255.27,202.10 256.69,203.00 257.15,203.00 C257.62,203.00 258.00,206.81 258.00,211.46 L 258.00 219.92 L 254.25 220.95 C253.37,221.19 252.12,221.53 250.74,221.90 C255.09,220.50 253.75,219.09 246.69,217.00 C242.74,215.83 236.04,213.55 231.80,211.94 C227.57,210.32 223.46,209.00 222.67,209.00 C221.88,209.00 218.28,207.51 214.66,205.69 C210.25,203.47 208.48,202.84 207.80,203.39 ZM 192.00 186.20 C192.00,187.66 197.05,187.03 197.64,185.50 C197.99,184.59 199.50,184.00 201.50,184.00 C203.50,184.00 205.01,184.59 205.36,185.50 C206.05,187.31 211.02,187.53 210.96,185.75 C210.93,185.06 209.65,180.90 208.11,176.50 L 205.30 168.50 L 197.68 168.50 L 194.84 176.95 C193.28,181.60 192.00,185.77 192.00,186.20 ZM 203.00 177.06 C203.00,178.13 202.32,179.00 201.50,179.00 C199.89,179.00 199.65,178.08 200.60,175.59 C201.39,173.55 203.00,174.54 203.00,177.06 ZM 188.63 233.41 C184.02,230.46 178.56,227.79 172.71,225.67 C176.54,226.96 179.66,228.29 183.10,230.03 C184.75,230.87 186.68,232.06 188.63,233.41 ZM 248.04 222.61 C246.98,222.89 245.94,223.17 245.00,223.41 C241.70,224.26 238.71,225.17 235.94,226.16 C239.57,224.74 243.27,223.61 246.88,222.86 C247.29,222.78 247.68,222.70 248.04,222.61 ZM 207.54 244.93 C207.10,244.02 206.94,235.02 207.01,225.53 C207.03,234.94 207.21,244.02 207.54,244.93 ZM 202.37 244.27 C202.28,244.75 202.18,245.00 202.07,245.00 C201.95,245.00 201.79,244.94 201.59,244.82 C201.91,244.89 202.17,244.72 202.37,244.27 ZM 212.83 240.73 C210.14,243.16 207.91,245.00 207.62,245.00 C207.61,245.00 207.61,245.00 207.61,245.00 C207.92,244.95 210.11,243.16 212.83,240.73 Z" fill="rgb(14,127,146)"/>
<path d="M 248.04 222.61 C249.11,222.37 250.00,222.14 250.74,221.90 C252.12,221.53 253.37,221.19 254.25,220.95 L 258.00 219.92 L 258.00 211.46 C258.00,206.81 257.62,203.00 257.15,203.00 C256.69,203.00 255.27,202.10 254.01,201.01 C252.00,199.26 250.83,199.09 244.71,199.66 C238.99,200.20 237.49,200.03 236.56,198.75 C235.93,197.89 233.47,196.67 231.10,196.03 C228.38,195.29 226.60,194.18 226.30,193.02 C226.03,192.01 225.01,190.98 224.04,190.72 C223.02,190.45 220.17,191.98 217.14,194.07 C222.56,189.89 229.41,185.19 235.00,182.03 C244.59,176.62 257.04,171.64 258.17,172.77 C258.65,173.25 258.92,184.14 258.77,196.97 L 258.50 220.30 L 249.00 222.52 C243.50,223.81 238.92,225.11 234.91,226.58 C235.25,226.44 235.59,226.30 235.94,226.16 C238.71,225.17 241.70,224.26 245.00,223.41 C245.94,223.17 246.98,222.89 248.04,222.61 ZM 224.51 182.99 C226.62,180.65 225.25,177.77 221.01,175.65 L 218.00 174.15 L 218.00 179.41 C218.00,183.92 217.69,184.81 215.60,185.95 C216.63,184.56 217.00,181.63 217.00,176.30 C217.00,168.11 216.97,168.00 214.50,168.00 C212.01,168.00 212.00,168.03 212.00,177.50 C212.00,178.22 212.00,178.90 212.01,179.53 C211.98,178.47 211.95,177.35 211.93,176.19 C211.77,166.85 211.56,165.84 209.63,164.81 C207.67,163.78 205.90,162.35 200.98,157.83 C199.98,156.92 198.90,156.43 198.58,156.75 C198.26,157.07 197.99,156.70 197.98,155.92 C197.96,155.14 195.68,158.66 192.90,163.75 C191.93,165.53 190.94,167.20 190.03,168.62 C191.66,165.81 194.21,160.95 196.79,155.70 C204.32,140.34 204.82,137.38 200.80,131.95 C197.03,126.85 202.29,121.00 207.55,124.44 C210.56,126.42 210.76,130.24 208.00,133.00 C204.42,136.58 205.41,140.63 213.69,156.32 C217.92,164.33 221.75,170.66 222.19,170.38 C222.64,170.11 223.00,164.17 223.00,157.18 C223.00,145.56 222.83,144.37 221.00,143.23 C217.05,140.77 219.75,134.00 224.67,134.00 C227.05,134.00 230.00,136.95 230.00,139.33 C230.00,140.25 229.07,141.93 227.94,143.06 C226.00,145.00 225.90,146.15 226.07,163.71 L 226.25 182.31 L 215.77 190.03 L 215.11 190.51 C219.56,187.21 223.66,183.93 224.51,182.99 ZM 419.93 202.54 C414.69,205.25 405.00,203.55 405.00,199.92 C405.00,197.67 405.10,197.65 410.14,199.16 C413.04,200.03 414.63,200.03 416.50,199.18 C421.26,197.01 419.20,193.99 412.07,192.63 C407.34,191.73 405.00,189.34 405.00,185.42 C405.00,179.13 414.91,175.45 420.78,179.56 C423.81,181.68 423.79,184.50 420.75,183.48 C419.51,183.06 416.70,182.67 414.50,182.61 C410.91,182.51 410.50,182.75 410.50,184.90 C410.50,186.92 411.36,187.58 415.96,189.08 C421.54,190.90 424.00,193.04 424.00,196.11 C424.00,199.18 422.82,201.04 419.93,202.54 ZM 492.74 202.47 C489.23,204.93 485.22,204.37 481.80,200.95 C479.13,198.29 478.82,197.40 479.29,193.87 C479.91,189.23 482.05,186.45 485.73,185.53 C490.90,184.23 496.00,188.46 496.00,194.05 C496.00,195.77 495.28,196.00 489.92,196.00 C485.69,196.00 483.95,196.36 484.23,197.18 C485.03,199.60 487.83,200.50 490.91,199.34 C494.69,197.91 496.01,200.18 492.74,202.47 ZM 188.28 171.17 C187.42,172.32 186.76,173.00 186.45,173.00 C185.30,173.00 184.84,173.88 183.86,178.64 L 183.95 163.40 C184.07,145.45 183.96,144.27 182.04,142.53 C178.37,139.22 180.35,133.00 185.07,133.00 C187.52,133.00 191.00,136.43 191.00,138.85 C191.00,139.86 190.10,141.50 189.00,142.50 C187.18,144.15 187.00,145.58 187.00,158.28 C187.00,169.75 187.19,171.92 188.28,171.17 ZM 509.57 199.37 C505.21,209.66 504.36,211.00 502.21,211.00 C500.29,211.00 499.94,210.64 500.52,209.25 C500.59,209.07 500.66,208.89 500.74,208.72 C501.98,205.74 502.64,204.16 502.64,202.57 C502.64,200.68 501.70,198.79 499.67,194.52 C497.65,190.27 496.00,186.61 496.00,186.40 C496.00,186.18 497.06,186.00 498.35,186.00 C500.25,186.00 501.15,187.08 503.15,191.75 L 505.60 197.50 L 507.98 191.75 C509.95,187.01 510.79,186.00 512.77,186.00 C514.09,186.00 515.02,186.39 514.83,186.87 C514.65,187.35 512.28,192.97 509.57,199.37 ZM 178.81 174.27 C178.51,177.28 177.05,178.72 175.69,177.35 C175.31,176.98 175.00,174.80 175.00,172.52 C175.00,170.25 174.44,167.69 173.75,166.84 C171.32,163.86 165.25,161.00 161.33,161.00 C156.69,161.00 155.00,159.62 155.00,155.82 C155.00,149.20 164.34,148.46 165.65,154.98 C166.09,157.20 167.53,158.77 171.19,161.02 C176.63,164.37 179.32,169.06 178.81,174.27 ZM 440.75 203.01 C439.51,203.02 436.92,203.27 435.00,203.57 C432.64,203.94 430.77,203.60 429.25,202.50 C427.26,201.08 427.00,200.02 427.00,193.44 C427.00,186.73 427.19,186.00 428.95,186.00 C430.64,186.00 430.94,186.82 431.20,192.15 C431.53,198.98 433.44,201.47 436.75,199.39 C438.04,198.58 438.58,196.69 438.80,192.15 C439.06,186.82 439.36,186.00 441.05,186.00 C442.83,186.00 443.00,186.74 443.00,194.50 C443.00,202.64 442.91,203.00 440.75,203.01 ZM 234.01 174.75 C234.00,176.97 233.52,178.00 232.50,178.00 C231.37,178.00 231.00,176.79 231.00,173.08 C231.00,167.29 233.90,163.11 240.13,159.94 C242.91,158.51 244.00,157.32 244.00,155.68 C244.00,150.60 250.69,149.07 253.59,153.50 C255.11,155.82 255.11,156.18 253.59,158.50 C252.32,160.44 251.10,161.00 248.15,161.00 C245.59,161.00 242.85,161.99 239.78,164.02 C235.10,167.12 234.04,169.10 234.01,174.75 ZM 474.76 196.50 C472.81,201.45 471.94,202.55 469.81,202.81 C467.76,203.05 467.02,202.53 466.22,200.31 C465.66,198.76 464.03,194.91 462.61,191.75 L 460.03 186.00 L 462.48 186.00 C464.48,186.00 465.35,186.94 467.10,191.00 C468.28,193.75 469.54,196.00 469.89,196.00 C470.24,196.00 471.33,193.75 472.31,191.00 C473.78,186.86 474.50,186.00 476.52,186.00 C478.64,186.00 478.84,186.28 478.04,188.25 C477.54,189.49 476.07,193.20 474.76,196.50 ZM 452.20 197.25 C451.94,202.18 451.62,203.00 449.95,203.00 C448.17,203.00 448.00,202.26 448.00,194.50 L 448.00 186.00 L 451.25 186.12 C453.04,186.18 455.51,185.91 456.75,185.50 C458.66,184.88 459.00,185.13 459.00,187.18 C459.00,189.03 458.25,189.81 455.75,190.54 C452.62,191.46 452.49,191.72 452.20,197.25 ZM 484.23 191.82 C483.97,192.58 485.11,193.00 487.42,193.00 C489.97,193.00 491.00,192.56 491.00,191.47 C491.00,188.25 485.32,188.54 484.23,191.82 ZM 247.18 155.76 C246.94,157.44 247.36,158.00 248.87,158.00 C251.31,158.00 252.22,156.74 251.38,154.54 C250.49,152.23 247.56,153.08 247.18,155.76 ZM 202.67 129.57 C202.97,130.36 204.02,131.00 205.00,131.00 C207.36,131.00 208.26,128.46 206.44,126.95 C204.63,125.45 201.83,127.40 202.67,129.57 ZM 183.36 139.51 C184.16,141.59 187.37,141.04 187.81,138.74 C188.21,136.67 185.32,135.28 183.80,136.80 C183.21,137.39 183.02,138.60 183.36,139.51 ZM 222.36 140.51 C223.16,142.59 226.37,142.04 226.81,139.74 C227.21,137.67 224.32,136.28 222.80,137.80 C222.21,138.39 222.02,139.60 222.36,140.51 ZM 158.35 156.47 C158.70,157.39 159.78,158.00 160.74,157.81 C162.89,157.40 163.60,154.44 161.71,153.72 C159.62,152.92 157.62,154.56 158.35,156.47 ZM 183.84 181.26 C184.74,182.68 187.56,185.05 192.93,188.92 L 183.83 182.43 ZM 212.27 184.79 C212.43,186.10 212.69,186.75 213.05,186.94 C212.81,186.98 212.63,186.96 212.55,186.89 C212.46,186.79 212.36,186.02 212.27,184.79 ZM 198.05 192.58 L 205.30 197.75 L 208.82 195.15 L 205.29 197.75 ZM 207.80 203.39 C207.84,203.04 207.89,202.78 207.95,202.63 C207.90,202.76 207.85,203.03 207.80,203.39 Z" fill="rgb(87,182,187)"/>
<path d="M 0.00 204.00 L 0.00 0.00 L 306.00 0.00 L 612.00 0.00 L 612.00 204.00 L 612.00 408.00 L 306.00 408.00 L 0.00 408.00 L 0.00 204.00 ZM 202.88 229.75 C202.81,221.36 202.47,211.37 202.13,207.54 L 201.50 200.59 L 195.81 196.27 C184.08,187.36 158.28,173.00 154.02,173.00 C152.05,173.00 152.00,173.60 152.00,196.46 L 152.00 219.92 L 155.75 220.89 C157.81,221.43 161.52,222.37 164.00,223.00 C178.92,226.75 192.86,234.47 199.14,242.45 C200.24,243.85 201.56,245.00 202.07,245.00 C202.61,245.00 202.95,238.54 202.88,229.75 ZM 214.15 239.52 C223.91,230.48 232.11,226.48 249.00,222.52 L 258.50 220.30 L 258.77 196.97 C258.92,184.14 258.65,173.25 258.17,172.77 C257.04,171.64 244.59,176.62 235.00,182.03 C224.35,188.05 209.07,199.68 207.95,202.63 C206.92,205.34 206.61,245.00 207.62,245.00 C207.96,245.00 210.89,242.54 214.15,239.52 ZM 193.87 241.33 C191.67,238.66 182.86,233.37 175.92,230.54 C168.60,227.56 155.39,224.00 151.64,224.00 C150.25,224.00 148.91,223.66 148.65,223.24 C148.39,222.82 147.85,213.48 147.45,202.49 C146.72,182.43 146.43,181.05 142.89,181.02 C141.47,181.00 141.18,183.79 140.54,204.03 C140.03,220.22 140.14,227.46 140.90,228.38 C141.57,229.18 145.44,229.95 150.75,230.34 C160.92,231.08 174.96,234.65 186.43,239.41 C190.87,241.25 194.67,242.81 194.87,242.88 C195.08,242.94 194.63,242.25 193.87,241.33 ZM 228.72 237.58 C240.08,233.57 246.80,231.93 257.89,230.45 C263.72,229.67 268.84,229.03 269.25,229.02 C270.37,228.99 270.18,181.00 269.07,181.00 C268.55,181.00 266.98,181.44 265.57,181.98 L 263.00 182.95 L 263.00 202.96 C263.00,222.92 262.99,222.96 260.75,223.37 C243.68,226.47 227.61,232.38 219.55,238.53 C215.23,241.82 214.89,243.63 218.97,241.51 C220.61,240.67 225.00,238.90 228.72,237.58 ZM 509.57 199.37 C512.28,192.97 514.65,187.35 514.83,186.87 C515.02,186.39 514.09,186.00 512.77,186.00 C510.79,186.00 509.95,187.01 507.98,191.75 L 505.60 197.50 L 503.15 191.75 C501.15,187.08 500.25,186.00 498.35,186.00 C497.06,186.00 496.00,186.18 496.00,186.40 C496.00,186.61 497.65,190.27 499.67,194.52 C503.49,202.57 503.47,202.17 500.52,209.25 C499.94,210.64 500.29,211.00 502.21,211.00 C504.36,211.00 505.21,209.66 509.57,199.37 ZM 307.93 202.54 C312.37,200.24 313.40,195.40 310.15,192.15 C308.56,190.56 308.49,190.05 309.65,188.46 C311.17,186.38 311.38,183.15 310.13,181.18 C308.88,179.20 302.18,177.99 296.25,178.67 L 291.00 179.28 L 291.00 190.97 C291.00,197.40 291.30,202.97 291.67,203.33 C292.94,204.60 305.08,204.01 307.93,202.54 ZM 330.41 200.92 C333.59,197.14 333.80,192.28 330.93,188.63 C329.21,186.45 328.04,186.00 324.12,186.00 C316.15,186.00 311.96,192.06 315.45,198.54 C318.80,204.75 326.20,205.93 330.41,200.92 ZM 347.92 202.75 C348.98,201.75 349.34,201.75 349.71,202.75 C349.96,203.44 351.03,204.00 352.08,204.00 C353.87,204.00 354.00,203.14 354.00,191.00 C354.00,178.79 353.88,178.00 352.06,178.00 C350.49,178.00 350.06,178.81 349.81,182.22 L 349.50 186.44 L 344.82 186.15 C341.17,185.92 339.69,186.31 338.07,187.93 C335.77,190.23 335.24,196.70 337.07,200.12 C338.91,203.58 345.39,205.14 347.92,202.75 ZM 362.80 197.20 C363.06,191.66 363.39,190.78 365.52,189.81 C369.32,188.08 370.86,190.12 371.20,197.33 C371.46,202.73 371.75,203.50 373.50,203.50 C375.31,203.50 375.50,202.83 375.50,196.40 C375.50,187.18 374.31,185.62 367.79,186.25 L 363.00 186.71 L 363.00 182.35 C363.00,178.67 362.69,178.00 361.00,178.00 C359.10,178.00 359.00,178.67 359.00,191.07 C359.00,202.98 359.16,204.12 360.75,203.81 C362.16,203.55 362.56,202.24 362.80,197.20 ZM 389.50 202.89 C390.05,202.87 391.51,203.17 392.75,203.54 C394.94,204.21 395.00,204.04 395.00,197.05 C395.00,187.33 394.17,186.00 388.05,186.00 C382.03,186.00 379.96,186.73 380.68,188.61 C381.08,189.66 382.15,189.87 384.63,189.41 C386.73,189.02 388.58,189.24 389.50,190.00 C391.60,191.74 390.41,193.00 386.66,193.00 C382.47,193.00 379.00,195.49 379.00,198.50 C379.00,201.61 382.73,204.28 386.00,203.51 C387.38,203.18 388.95,202.91 389.50,202.89 ZM 419.93 202.54 C422.82,201.04 424.00,199.18 424.00,196.11 C424.00,193.04 421.54,190.90 415.96,189.08 C411.36,187.58 410.50,186.92 410.50,184.90 C410.50,182.75 410.91,182.51 414.50,182.61 C416.70,182.67 419.51,183.06 420.75,183.48 C423.79,184.50 423.81,181.68 420.78,179.56 C414.91,175.45 405.00,179.13 405.00,185.42 C405.00,189.34 407.34,191.73 412.07,192.63 C419.20,193.99 421.26,197.01 416.50,199.18 C414.63,200.03 413.04,200.03 410.14,199.16 C405.10,197.65 405.00,197.67 405.00,199.92 C405.00,203.55 414.69,205.25 419.93,202.54 ZM 440.75 203.01 C442.91,203.00 443.00,202.64 443.00,194.50 C443.00,186.74 442.83,186.00 441.05,186.00 C439.36,186.00 439.06,186.82 438.80,192.15 C438.58,196.69 438.04,198.58 436.75,199.39 C433.44,201.47 431.53,198.98 431.20,192.15 C430.94,186.82 430.64,186.00 428.95,186.00 C427.19,186.00 427.00,186.73 427.00,193.44 C427.00,200.02 427.26,201.08 429.25,202.50 C430.77,203.60 432.64,203.94 435.00,203.57 C436.92,203.27 439.51,203.02 440.75,203.01 ZM 492.74 202.47 C496.01,200.18 494.69,197.91 490.91,199.34 C487.83,200.50 485.03,199.60 484.23,197.18 C483.95,196.36 485.69,196.00 489.92,196.00 C495.28,196.00 496.00,195.77 496.00,194.05 C496.00,188.46 490.90,184.23 485.73,185.53 C482.05,186.45 479.91,189.23 479.29,193.87 C478.82,197.40 479.13,198.29 481.80,200.95 C485.22,204.37 489.23,204.93 492.74,202.47 ZM 452.20 197.25 C452.49,191.72 452.62,191.46 455.75,190.54 C458.25,189.81 459.00,189.03 459.00,187.18 C459.00,185.13 458.66,184.88 456.75,185.50 C455.51,185.91 453.04,186.18 451.25,186.12 L 448.00 186.00 L 448.00 194.50 C448.00,202.26 448.17,203.00 449.95,203.00 C451.62,203.00 451.94,202.18 452.20,197.25 ZM 474.76 196.50 C476.07,193.20 477.54,189.49 478.04,188.25 C478.84,186.28 478.64,186.00 476.52,186.00 C474.50,186.00 473.78,186.86 472.31,191.00 C471.33,193.75 470.24,196.00 469.89,196.00 C469.54,196.00 468.28,193.75 467.10,191.00 C465.35,186.94 464.48,186.00 462.48,186.00 L 460.03 186.00 L 462.61 191.75 C464.03,194.91 465.66,198.76 466.22,200.31 C467.02,202.53 467.76,203.05 469.81,202.81 C471.94,202.55 472.81,201.45 474.76,196.50 ZM 226.07 163.71 C225.90,146.15 226.00,145.00 227.94,143.06 C229.07,141.93 230.00,140.25 230.00,139.33 C230.00,136.95 227.05,134.00 224.67,134.00 C219.75,134.00 217.05,140.77 221.00,143.23 C222.83,144.37 223.00,145.56 223.00,157.18 C223.00,164.17 222.64,170.11 222.19,170.38 C221.75,170.66 217.92,164.33 213.69,156.32 C205.41,140.63 204.42,136.58 208.00,133.00 C210.76,130.24 210.56,126.42 207.55,124.44 C202.29,121.00 197.03,126.85 200.80,131.95 C204.82,137.38 204.32,140.34 196.79,155.70 C192.96,163.51 189.20,170.42 188.42,171.07 C187.21,172.07 187.00,170.21 187.00,158.28 C187.00,145.58 187.18,144.15 189.00,142.50 C190.10,141.50 191.00,139.86 191.00,138.85 C191.00,136.43 187.52,133.00 185.07,133.00 C180.35,133.00 178.37,139.22 182.04,142.53 C183.96,144.27 184.07,145.45 183.95,163.40 L 183.83 182.43 L 194.56 190.09 L 205.29 197.75 L 215.77 190.03 L 226.25 182.31 L 226.07 163.71 ZM 178.81 174.27 C179.32,169.06 176.63,164.37 171.19,161.02 C167.53,158.77 166.09,157.20 165.65,154.98 C164.34,148.46 155.00,149.20 155.00,155.82 C155.00,159.62 156.69,161.00 161.33,161.00 C165.25,161.00 171.32,163.86 173.75,166.84 C174.44,167.69 175.00,170.25 175.00,172.52 C175.00,174.80 175.31,176.98 175.69,177.35 C177.05,178.72 178.51,177.28 178.81,174.27 ZM 234.01 174.75 C234.04,169.10 235.10,167.12 239.78,164.02 C242.85,161.99 245.59,161.00 248.15,161.00 C251.10,161.00 252.32,160.44 253.59,158.50 C255.11,156.18 255.11,155.82 253.59,153.50 C250.69,149.07 244.00,150.60 244.00,155.68 C244.00,157.32 242.91,158.51 240.13,159.94 C233.90,163.11 231.00,167.29 231.00,173.08 C231.00,176.79 231.37,178.00 232.50,178.00 C233.52,178.00 234.00,176.97 234.01,174.75 ZM 296.67 199.33 C296.30,198.97 296.00,197.37 296.00,195.78 C296.00,192.93 296.06,192.90 301.24,193.20 C305.49,193.44 306.55,193.86 306.85,195.43 C307.05,196.50 306.41,197.96 305.42,198.68 C303.54,200.06 297.82,200.48 296.67,199.33 ZM 296.71 188.38 C296.32,187.99 296.00,186.39 296.00,184.83 C296.00,182.21 296.29,182.00 299.88,182.00 C304.44,182.00 306.97,184.23 305.34,186.83 C304.27,188.54 298.00,189.67 296.71,188.38 ZM 320.57 198.43 C317.22,195.08 319.88,188.55 324.34,189.20 C325.49,189.36 327.10,190.69 327.91,192.13 C329.23,194.50 329.20,195.04 327.67,197.38 C325.73,200.34 322.90,200.76 320.57,198.43 ZM 341.44 197.55 C339.45,194.51 340.33,191.26 343.56,189.79 C347.72,187.89 350.96,192.35 349.05,197.37 C347.72,200.86 343.67,200.95 341.44,197.55 ZM 384.54 199.65 C381.98,197.78 383.45,196.00 387.56,196.00 C391.45,196.00 392.30,198.24 389.07,199.96 C386.64,201.26 386.75,201.27 384.54,199.65 ZM 484.23 191.82 C485.32,188.54 491.00,188.25 491.00,191.47 C491.00,192.56 489.97,193.00 487.42,193.00 C485.11,193.00 483.97,192.58 484.23,191.82 ZM 192.00 186.20 C192.00,185.77 193.28,181.60 194.84,176.95 L 197.68 168.50 L 201.49 168.50 L 205.30 168.50 L 208.11 176.50 C209.65,180.90 210.93,185.06 210.96,185.75 C211.02,187.53 206.05,187.31 205.36,185.50 C205.01,184.59 203.50,184.00 201.50,184.00 C199.50,184.00 197.99,184.59 197.64,185.50 C197.05,187.03 192.00,187.66 192.00,186.20 ZM 203.00 177.06 C203.00,174.54 201.39,173.55 200.60,175.59 C199.65,178.08 199.89,179.00 201.50,179.00 C202.32,179.00 203.00,178.13 203.00,177.06 ZM 212.00 177.50 C212.00,168.03 212.01,168.00 214.50,168.00 C216.97,168.00 217.00,168.11 217.00,176.30 C217.00,184.50 216.14,187.00 213.30,187.00 C212.32,187.00 212.00,184.63 212.00,177.50 ZM 222.36 140.51 C222.02,139.60 222.21,138.39 222.80,137.80 C224.32,136.28 227.21,137.67 226.81,139.74 C226.37,142.04 223.16,142.59 222.36,140.51 ZM 183.36 139.51 C183.02,138.60 183.21,137.39 183.80,136.80 C185.32,135.28 188.21,136.67 187.81,138.74 C187.37,141.04 184.16,141.59 183.36,139.51 ZM 202.67 129.57 C201.83,127.40 204.63,125.45 206.44,126.95 C208.26,128.46 207.36,131.00 205.00,131.00 C204.02,131.00 202.97,130.36 202.67,129.57 ZM 158.35 156.47 C157.62,154.56 159.62,152.92 161.71,153.72 C163.60,154.44 162.89,157.40 160.74,157.81 C159.78,158.00 158.70,157.39 158.35,156.47 ZM 247.18 155.76 C247.56,153.08 250.49,152.23 251.38,154.54 C252.22,156.74 251.31,158.00 248.87,158.00 C247.36,158.00 246.94,157.44 247.18,155.76 Z" fill="rgb(254,254,254)"/>
</g>
</svg>